<svg width="118" height="118" viewBox="0 0 118 118" fill="none" xmlns="http://www.w3.org/2000/svg">
<mask id="mask0_22_1023" style="mask-type:alpha" maskUnits="userSpaceOnUse" x="0" y="0" width="118" height="118">
<circle cx="58.7485" cy="58.7485" r="58.7485" fill="#D9D9D9"/>
</mask>
<g mask="url(#mask0_22_1023)">
<rect x="-16.5879" y="-1.38232" width="132.011" height="118.879" fill="#689CD2"/>
<rect x="-16.2869" y="-1.74512" width="148.752" height="116.339" rx="15" fill="#689CD2"/>
<path d="M132.465 -1.68115L75.8852 42.9864C38.5654 72.4486 -16.2869 45.8666 -16.2869 -1.68115H132.465Z" fill="#FFA273"/>
<path d="M31.7694 43.5308C33.0929 43.5308 34.1177 44.6894 33.9561 46.003C33.6261 48.6848 37.4832 49.4904 38.2543 46.9008L39.3693 43.156C39.7313 41.9404 40.9373 41.1807 42.19 41.3791L50.3133 42.6657C50.7789 42.7395 51.2497 42.7765 51.7212 42.7765H56.1443H59.0119L72.1872 43.2537C76.3673 43.405 79.5866 46.996 79.2823 51.1677L79.0009 55.0245C78.8781 56.7087 77.4758 58.0124 75.7871 58.0124H75.618C74.1361 58.0124 72.8726 56.9383 72.634 55.4757L72.1732 52.6509C71.6205 49.2631 66.6265 49.6677 66.6265 53.1004C66.6265 53.9264 66.9923 54.71 67.6256 55.2404L68.5745 56.0353C70.0391 57.262 70.7533 59.1668 70.4564 61.054L69.2086 68.9853C69.0418 70.0457 69.4132 71.1196 70.1995 71.8503L77.9524 79.0555C78.8779 79.9157 77.943 81.423 76.7611 80.9761C76.7005 80.9531 76.638 80.9354 76.5744 80.9229L65.0622 78.6762C64.5938 78.5848 64.2034 78.2629 64.0245 77.8204C63.4176 76.32 61.1737 76.856 61.3105 78.4687L61.5843 81.6989C61.7348 83.4735 59.5808 84.4617 58.3337 83.1902L44.2918 68.8732C42.7221 67.2727 40.0016 68.3841 40.0016 70.6259C40.0016 71.554 40.5152 72.406 41.3359 72.8394L49.1703 76.9761C54.4223 79.7493 59.2121 72.6101 54.6546 68.8018C53.7644 68.058 52.6412 67.6505 51.4812 67.6505H35.4916C30.6088 67.6505 26.6166 63.757 26.4944 58.8757L26.2073 47.4056C26.1542 45.2815 27.8616 43.5308 29.9864 43.5308H31.7694Z" fill="white"/>
</g>
</svg>
